<?xml version="1.0" encoding="utf-8"?>
<!-- Generator: Adobe Illustrator 26.1.0, SVG Export Plug-In . SVG Version: 6.00 Build 0)  -->
<svg version="1.1" id="Layer_1" xmlns="http://www.w3.org/2000/svg" xmlns:xlink="http://www.w3.org/1999/xlink" x="0px" y="0px"
	 viewBox="0 0 1000 950" style="enable-background:new 0 0 1000 950;" xml:space="preserve">
<style type="text/css">
	.st0{fill:#B7E1E2;}
	.st1{fill:#859D9E;}
	.st2{opacity:0.15;}
	.st3{fill:#FFFFFF;}
	.st4{opacity:0.8;fill:#FFFFFF;}
	.st5{fill:#F2AE03;}
	.st6{opacity:0.1;}
	.st7{fill:#009ADE;}
	.st8{fill:#7F7B79;}
</style>
<g>
	<polygon class="st1" points="1.0271441,373.8416443 1.0271441,825.9440918 499.9997864,719.1257935 998.9728394,825.9440918 
		998.9728394,373.8416443 	"/>
	<rect x="1.0271441" class="st1" width="997.9456787" height="351.7333069"/>
	<polygon class="st1" points="988.2706909,864.2282715 998.9728394,866.4941406 998.9728394,847.2442017 988.2706909,844.9783325 
		501.9511414,742.0061646 500.0021057,741.59552 15.1595249,844.3590088 1.027161,847.3543091 1.027161,866.6054077 
		15.1595249,863.6098022 500.0021057,760.8414917 	"/>
	<polygon class="st1" points="988.2706909,902.6062622 998.9728394,904.8721313 998.9728394,885.6221924 988.2706909,883.3563232 
		501.9511414,780.3841553 500.0021057,779.9735107 15.1595249,882.7369995 1.027161,885.7322998 1.027161,904.9833984 
		15.1595249,901.987793 500.0021057,799.2195435 	"/>
	<polygon class="st1" points="988.2706909,941.0547485 998.9728394,943.3206177 998.9728394,924.0706177 988.2706909,921.8047485 
		501.9511414,818.8325806 500.0021057,818.421936 15.1595249,921.1854248 1.027161,924.1807861 1.027161,943.4318237 
		15.1595249,940.4362183 500.0021057,837.6679688 	"/>
	<g class="st2">
		<polygon points="998.9728394,825.9440918 998.9728394,373.8416748 499.9999695,373.8416748 499.9999695,719.1258545 		"/>
		<rect x="499.9999695" y="0.0000851" width="498.9728699" height="351.7332458"/>
		<polygon points="500.0021057,760.8414917 988.270752,864.2282715 998.9728394,866.4941406 998.9728394,847.2442017 
			988.270752,844.9783325 501.9511108,742.0061646 500.0021057,741.59552 499.9999695,741.5959473 499.9999695,760.8419189 		"/>
		<polygon points="500.0021057,799.2195435 988.270752,902.6062622 998.9728394,904.8721924 998.9728394,885.6221924 
			988.270752,883.3563232 501.9511108,780.3841553 500.0021057,779.9735107 499.9999695,779.973938 499.9999695,799.2199707 		"/>
		<polygon points="500.0021057,837.6679688 988.270752,941.0547485 998.9728394,943.3206177 998.9728394,924.0706177 
			988.270752,921.8047485 501.9511108,818.8325806 500.0021057,818.421936 499.9999695,818.4223633 499.9999695,837.668396 		"/>
	</g>
	<g>
		<g>
			<path class="st3" d="M415.2796021,64.3117371H454.6987v4.0307236h-17.3526001v45.7042999h-4.7138672V68.4107819h-17.3526001
				v-4.0990448H415.2796021z"/>
			<path class="st3" d="M459.3442993,64.3117371h4.7138672v21.5882797h29.5131226V64.3117371h4.7138672v49.7350235h-4.7138672
				v-24.047699h-29.5131226v24.047699h-4.7138672V64.3117371z"/>
			<path class="st3" d="M508.3961182,64.3117371h34.3636475v4.0307236h-29.5814209v17.9674606h27.6685181v4.0307236h-27.7368164
				v19.6070786H543.03302v4.0990372h-34.7052002V64.3117371H508.3961182z"/>
		</g>
		<g>
			<path class="st3" d="M415.2796021,237.4278717h31.5626221v4.0307159h-26.7803955v17.9674683h23.7744141v4.0307007h-23.8427429
				v23.7061157h-4.7138977V237.4278717z"/>
			<path class="st3" d="M473.4859619,236.4031219c15.576355,0,23.3645325,12.2287903,23.3645325,25.8922577
				c0,13.6634827-7.7881775,25.8922729-23.3645325,25.8922729c-15.6446533,0-23.5011597-12.2287903-23.5011597-25.8922729
				C449.9848022,248.6319122,457.7729797,236.4031219,473.4859619,236.4031219z M473.4859619,284.1569214
				c13.1169434,0,18.6506348-10.9990845,18.6506348-21.8615417s-5.6020508-21.8615417-18.6506348-21.8615417
				c-13.1852417,0-18.7189331,10.9990845-18.7189331,21.8615417S460.3007202,284.1569214,473.4859619,284.1569214z"/>
			<path class="st3" d="M503.7505493,237.4278717h4.7139282v30.8111115c0,11.4773254,5.3287354,15.9179382,14.5515747,15.9179382
				c9.2911377,0,14.6199341-4.4406128,14.6199341-15.9179382v-30.8111115h4.7139282v31.8358917
				c0,10.2475891-5.5336914,18.9239197-19.3338013,18.9239197c-13.731781,0-19.2655334-8.6763306-19.2655334-18.9239197v-31.8358917
				H503.7505493z"/>
			<path class="st3" d="M551.9142456,237.4278717h5.260498l28.9665527,42.0834808h0.1366577v-42.0834808h4.7138672v49.7350311
				h-5.260437l-28.9665527-42.0834808h-0.1366577v42.0834808h-4.7139282V237.4278717z"/>
			<path class="st3" d="M601.0344238,237.4278717h17.2159424c15.0298462,0.3415833,22.8180542,8.4030304,22.8180542,24.8675079
				s-7.788208,24.5259094-22.8180542,24.8674927h-17.2159424V237.4278717z M605.7483521,283.1321716h10.1109619
				c14.2783203,0,20.4951782-5.943634,20.4951782-20.836792c0-14.8931732-6.2168579-20.836792-20.4951782-20.836792h-10.1109619
				V283.1321716z"/>
			<path class="st3" d="M663.2715454,237.4278717h5.260437l19.470459,49.7350311h-5.055542l-6.0802612-15.4397278h-22.6129761
				l-6.0119629,15.4397278h-5.055481L663.2715454,237.4278717z M655.7566528,267.6924438h19.5386963l-9.6326904-25.4823608
				L655.7566528,267.6924438z"/>
			<path class="st3" d="M682.468689,237.4278717h39.4191284v4.0307159h-17.3526611v45.7042847h-4.7138672v-45.7042847h-17.3526611
				v-4.0307159H682.468689z"/>
			<path class="st3" d="M726.9432983,237.4278717h4.7139282v49.7350311h-4.7139282V237.4278717z"/>
			<path class="st3" d="M762.8781738,236.4031219c15.576355,0,23.364563,12.2287903,23.364563,25.8922577
				c0,13.6634827-7.788208,25.8922729-23.364563,25.8922729c-15.6446533,0-23.5011597-12.2287903-23.5011597-25.8922729
				C739.3770142,248.6319122,747.1652222,236.4031219,762.8781738,236.4031219z M762.8781738,284.1569214
				c13.1169434,0,18.6506348-10.9990845,18.6506348-21.8615417s-5.6019897-21.8615417-18.6506348-21.8615417
				c-13.1851807,0-18.7189331,10.9990845-18.7189331,21.8615417S749.6929932,284.1569214,762.8781738,284.1569214z"/>
			<path class="st3" d="M793.5526733,237.4278717h5.260498l28.9665527,42.0834808h0.1366577v-42.0834808h4.7138672v49.7350311
				h-5.260437l-28.9665527-42.0834808h-0.1366577v42.0834808h-4.7139282V237.4278717z"/>
		</g>
		<g>
			<path class="st3" d="M415.2796021,128.8716278h27.3952637v66.1311798h39.350769v22.8179779h-66.8143311v-88.9491577H415.2796021z
				"/>
			<path class="st3" d="M499.993103,128.8716278h27.3952026v88.9491577h-27.3952332v-88.9491577H499.993103z"/>
			<path class="st3" d="M547.8152466,128.8716278h28.0100708l25.892334,47.6171722h0.2732544v-47.6171722h25.8922729v88.9491577
				h-26.6437378l-27.258606-48.5736237h-0.2733154v48.5736237h-25.8922729V128.8716278z"/>
			<path class="st3" d="M729.1977539,183.4571838c0,24.7991943-13.048584,36.4814453-40.512146,36.4814453
				c-27.3952637,0-40.6488037-11.6822662-40.6488037-36.4814453v-54.585556h27.3952026v48.4369965
				c0,8.9495697-0.1366577,20.4268799,13.3218994,20.4268799c12.9802856,0,12.9802856-11.4773254,12.9802856-20.4268799v-48.4369965
				h27.3952026v54.585556H729.1977539z"/>
			<path class="st3" d="M772.7842407,170.4768829l-29.3081665-41.6052551h32.1774292l13.4585571,24.1843414l13.1851807-24.1843414
				h30.4012451l-28.4882812,41.8785248l31.7675171,47.0706329h-32.9972534l-15.1664429-26.5071259l-15.7130127,26.5071259
				h-31.4259644L772.7842407,170.4768829z"/>
		</g>
		<g>
			<polygon class="st4" points="197.6205597,242.4150391 197.6205597,152.9876404 152.8043823,152.9876404 152.8043823,287.1628723 
				287.0479431,287.1628723 287.0479431,242.4150391 			"/>
			<polygon class="st3" points="376.4070129,63.4919319 152.8043823,63.4919319 152.8043823,130.5795593 197.5522461,130.5795593 
				197.5522461,108.4447403 331.727478,108.4447403 331.727478,242.4150391 309.3877258,242.4150391 309.3877258,287.1628723 
				376.4070129,287.1628723 			"/>
		</g>
	</g>
	<g>
		<g>
			<g>
				<path class="st3" d="M134.6679688,506.6530151v45.5820312h-15.3769531V438.59198h43.4755859
					c12.1230469,0,21.5419922,3.1220703,28.2539062,9.3662109c6.7128906,6.2441406,10.0693359,14.4663086,10.0693359,24.6645508
					c0,10.3549805-3.3564453,18.6152344-10.0693359,24.78125c-6.7119141,6.1660156-16.1308594,9.2490234-28.2539062,9.2490234
					H134.6679688z M134.6679688,494.5548706h28.0986328c7.7001953,0,13.4501953-2.0644531,17.2490234-6.1938477
					c3.7978516-4.1293945,5.6972656-9.3359375,5.6972656-15.621582c0-6.2841797-1.9121094-11.5307617-5.7363281-15.7382812
					s-9.5615234-6.3110352-17.2099609-6.3110352h-28.0986328V494.5548706z"/>
				<path class="st3" d="M236.9755859,540.1369019h53.7773438v12.0981445h-69.1542969V438.59198h15.3769531V540.1369019z"/>
				<path class="st3" d="M378.1708984,522.9655151h-47.6113281l-10.7714844,29.2695312h-15.6884766L348.0429688,438.59198
					h13.1904297l43.2412109,113.6430664h-15.6884766L378.1708984,522.9655151z M335.3203125,510.0870972h38.2451172
					l-18.7314453-51.7480469h-0.46875L335.3203125,510.0870972z"/>
				<path class="st3" d="M485.8847656,450.6901245h-36.5283203v101.5449219h-15.3759766V450.6901245h-36.4501953V438.59198
					h88.3544922V450.6901245z"/>
				<path class="st3" d="M517.2246094,552.2350464h-15.4541016V438.59198h15.4541016V552.2350464z"/>
				<path class="st3" d="M630.9013672,552.2350464h-15.3769531l-54.7138672-87.8857422l-0.4677734,0.1557617v87.7299805h-15.3769531
					V438.59198h15.3769531l54.7138672,87.7299805l0.4677734-0.15625V438.59198h15.3769531V552.2350464z"/>
				<path class="st3" d="M742.5419922,438.59198v77.0371094c0,12.3842773-4.0195312,21.8540039-12.0585938,28.4106445
					c-8.0390625,6.5561523-18.5371094,9.8344727-31.4941406,9.8344727c-12.4882812,0-22.6220703-3.2905273-30.4003906-9.8735352
					c-7.7802734-6.5820312-11.6689453-16.0395508-11.6689453-28.371582V438.59198h15.3759766v76.9785156
					c0,8.5795898,2.4453125,15.0917969,7.3369141,19.5371094c4.890625,4.4462891,11.3427734,6.668457,19.3564453,6.668457
					c8.4296875,0,15.2324219-2.222168,20.4111328-6.668457c5.1767578-4.4453125,7.765625-10.9575195,7.765625-19.5371094V438.59198
					H742.5419922z"/>
				<path class="st3" d="M788.0625,438.59198l36.2167969,92.3349609h0.4677734l36.2158203-92.3349609h19.6689453v113.6430664
					h-15.3759766v-44.9575195l1.5605469-46.206543l-0.3896484-0.078125l-36.8408203,91.2421875h-10.2246094l-36.6835938-91.0078125
					l-0.390625,0.0776367l1.4833984,45.9726562v44.9575195h-15.3769531V438.59198H788.0625z"/>
			</g>
			<g>
				<g>
					<path class="st3" d="M316.7441406,599.3615112l21.6298828,55.1455078h0.2792969l21.6298828-55.1455078h11.7470703v67.871582
						h-9.1835938v-26.8500977l0.9326172-27.5961914l-0.2333984-0.046875l-22.0019531,54.4931641h-6.1074219l-21.9091797-54.3535156
						l-0.2324219,0.046875l0.8857422,27.456543v26.8500977h-9.1835938v-67.871582H316.7441406z"/>
					<path class="st3" d="M429.1328125,635.7677612h-31.0917969v24.2397461h35.8466797v7.2255859h-45.0302734v-67.871582H433.375
						v7.2250977h-35.3339844v21.9560547h31.0917969V635.7677612z"/>
					<path class="st3" d="M456.4033203,599.3615112l21.6298828,55.1455078H478.3125l21.6298828-55.1455078h11.7470703v67.871582
						h-9.1835938v-26.8500977l0.9326172-27.5961914l-0.2333984-0.046875l-22.0019531,54.4931641h-6.1074219l-21.9091797-54.3535156
						l-0.2324219,0.046875l0.8857422,27.456543v26.8500977H444.65625v-67.871582H456.4033203z"/>
					<path class="st3" d="M528.5166016,667.2330933v-67.871582h22.1425781c7.0849609,0,12.6328125,1.5307617,16.6416016,4.5913086
						c4.0087891,3.0615234,6.0126953,7.6533203,6.0126953,13.7749023c0,3.0146484-0.9628906,5.7104492-2.8896484,8.0878906
						c-1.9277344,2.3774414-4.4599609,4.1416016-7.5986328,5.2905273c4.1025391,0.8706055,7.3261719,2.875,9.6728516,6.0136719
						c2.3457031,3.1391602,3.5195312,6.7905273,3.5195312,10.9545898c0,6.2158203-2.0126953,10.9624023-6.0371094,14.2407227
						c-4.0244141,3.2792969-9.4853516,4.9179688-16.3847656,4.9179688H528.5166016z M537.7001953,628.2160034h14.8701172
						c3.4179688,0,6.1992188-0.9394531,8.34375-2.8198242c2.1445312-1.8798828,3.2167969-4.4985352,3.2167969-7.8549805
						c0-3.6665039-1.1582031-6.409668-3.4726562-8.2275391c-2.3154297-1.8178711-5.6484375-2.7270508-9.9990234-2.7270508
						h-12.9589844V628.2160034z M537.7001953,635.4415894v24.565918h15.8955078
						c4.1640625,0,7.4121094-1.0288086,9.7421875-3.0878906c2.3310547-2.0585938,3.4960938-4.9760742,3.4960938-8.753418
						c0-3.9624023-0.9716797-7.0742188-2.9130859-9.3339844c-1.9423828-2.2602539-4.9335938-3.390625-8.9736328-3.390625
						H537.7001953z"/>
					<path class="st3" d="M629.8115234,635.7677612h-31.0917969v24.2397461h35.8466797v7.2255859h-45.0302734v-67.871582h44.5175781
						v7.2250977h-35.3339844v21.9560547h31.0917969V635.7677612z"/>
					<path class="st3" d="M654.5185547,637.8190308v29.4140625h-9.1835938v-67.8251953h24.5664062
						c7.4267578,0,13.0986328,1.6474609,17.0146484,4.9414062c3.9150391,3.2944336,5.8730469,8.0805664,5.8730469,14.3574219
						c0,3.480957-0.9091797,6.5107422-2.7265625,9.0898438c-1.8183594,2.5800781-4.4677734,4.6308594-7.9482422,6.1533203
						c3.7294922,1.2119141,6.4101562,3.1777344,8.0410156,5.8969727c1.6318359,2.7197266,2.4472656,6.0830078,2.4472656,10.0917969
						v6.3867188c0,2.1132812,0.2333984,4.0087891,0.6992188,5.6870117c0.4667969,1.6777344,1.2744141,3.0458984,2.4238281,4.1020508
						v1.1186523h-9.4619141c-1.2128906-1.0561523-1.9892578-2.6103516-2.3310547-4.6616211
						c-0.3427734-2.0507812-0.5126953-4.1640625-0.5126953-6.3393555v-6.2001953
						c0-3.6665039-1.0722656-6.6191406-3.2167969-8.8569336c-2.1445312-2.2373047-5.0195312-3.355957-8.6240234-3.355957
						H654.5185547z M654.5185547,630.5934448H668.96875c5.1894531,0,8.9267578-0.9848633,11.2109375-2.9541016
						c2.2841797-1.9697266,3.4267578-4.9702148,3.4267578-9.0024414c0-3.8154297-1.1113281-6.7695312-3.3330078-8.862793
						c-2.2226562-2.0932617-5.6796875-3.140625-10.3720703-3.140625h-15.3828125V630.5934448z"/>
				</g>
			</g>
		</g>
	</g>
</g>
</svg>
