<?xml version="1.0" encoding="utf-8"?>
<!-- Generator: Adobe Illustrator 26.1.0, SVG Export Plug-In . SVG Version: 6.00 Build 0)  -->
<svg version="1.1" id="Layer_1" xmlns="http://www.w3.org/2000/svg" xmlns:xlink="http://www.w3.org/1999/xlink" x="0px" y="0px"
	 viewBox="0 0 1000 950" style="enable-background:new 0 0 1000 950;" xml:space="preserve">
<style type="text/css">
	.st0{fill:#B7E1E2;}
	.st1{fill:#859D9E;}
	.st2{opacity:0.15;}
	.st3{fill:#FFFFFF;}
	.st4{opacity:0.8;fill:#FFFFFF;}
	.st5{fill:#F2AE03;}
	.st6{opacity:0.1;}
	.st7{fill:#009ADE;}
	.st8{fill:#7F7B79;}
</style>
<g>
	<path class="st0" d="M338.0650024,813.0293579c-0.0463562,0.0039673-0.0927124,0.0076294-0.1393127,0.0098877
		C337.9723511,813.0372314,338.0184326,813.03302,338.0650024,813.0293579z"/>
	<path class="st0" d="M339.8171997,812.5272217c0.0497437-0.0256958,0.102478-0.0431519,0.1514282-0.071106
		c0.0065002-0.0036621,0.0112305-0.0093384,0.0177307-0.0133057
		C339.9316711,812.4741821,339.8731689,812.4981689,339.8171997,812.5272217z"/>
	<path class="st0" d="M339.4065247,812.7202759c-0.0793152,0.0319214-0.161377,0.0567627-0.2425232,0.0838623
		C339.2453003,812.7770386,339.3265076,812.7521973,339.4065247,812.7202759z"/>
	<path class="st0" d="M340.8665466,811.7835083c-0.0194702,0.0186157-0.0405579,0.0349731-0.0603333,0.0530396
		C340.8259888,811.8184814,340.8470764,811.802124,340.8665466,811.7835083z"/>
	<path class="st0" d="M338.7640686,812.9209595c-0.0699463,0.0166626-0.1407776,0.0302124-0.2117615,0.043457
		C338.6233521,812.9514771,338.693634,812.9373169,338.7640686,812.9209595z"/>
	<path class="st0" d="M341.5656128,810.9356079c-0.0198364,0.0307617-0.0402832,0.0609741-0.0607605,0.0911865
		C341.5255432,810.9962769,341.5457153,810.9666748,341.5656128,810.9356079z"/>
	<g>
		<polygon class="st7" points="1.0271466,373.8416443 1.0271466,825.9440918 499.9997864,719.1257935 998.9728394,825.9440918 
			998.9728394,373.8416443 		"/>
		<rect x="1.0271466" class="st7" width="997.9456787" height="351.7333069"/>
		<g class="st6">
			<polygon points="998.9728394,825.9440308 998.9728394,373.8415833 499.9999695,373.8415833 499.9999695,719.1257324 			"/>
			<rect x="499.9999695" width="498.9728699" height="351.7332458"/>
		</g>
		<g>
			<g>
				<path class="st3" d="M415.2796326,64.3117371h39.4190979v4.0307236h-17.3526001v45.7042999h-4.7138977V68.4107819h-17.3526001
					V64.3117371L415.2796326,64.3117371z"/>
				<path class="st3" d="M459.3442993,64.3117371h4.7138977v21.5882797h29.513092V64.3117371h4.7138977v49.7350235h-4.7138977
					v-24.047699h-29.513092v24.047699h-4.7138977V64.3117371z"/>
				<path class="st3" d="M508.3961487,64.3117371h34.3636169v4.0307236h-29.5814209v17.9674606h27.6685181v4.0307236h-27.7368164
					v19.6070786H543.03302v4.0990372h-34.7051697V64.3117371H508.3961487z"/>
			</g>
			<g>
				<path class="st3" d="M415.2796326,237.4278717h31.5625916v4.0307159h-26.7803955v17.9674683h23.7744141v4.0307007h-23.8427429
					v23.7061157h-4.7138672V237.4278717z"/>
				<path class="st3" d="M473.4859619,236.4031219c15.576355,0,23.364563,12.2287903,23.364563,25.8922577
					c0,13.6634827-7.7881775,25.8922729-23.364563,25.8922729c-15.6446533,0-23.5011597-12.2287903-23.5011597-25.8922729
					C449.9848022,248.6319122,457.7729797,236.4031219,473.4859619,236.4031219z M473.4859619,284.1569214
					c13.1169434,0,18.6506348-10.9990845,18.6506348-21.8615417s-5.6020203-21.8615417-18.6506348-21.8615417
					c-13.1852112,0-18.7189331,10.9990845-18.7189331,21.8615417S460.3007507,284.1569214,473.4859619,284.1569214z"/>
				<path class="st3" d="M503.7505798,237.4278717h4.7138977v30.8111115c0,11.4773254,5.3287354,15.9179382,14.5515747,15.9179382
					c9.2911377,0,14.6199341-4.4406128,14.6199341-15.9179382v-30.8111115h4.7139282v31.8358917
					c0,10.2475891-5.5336914,18.9239197-19.3338013,18.9239197c-13.731781,0-19.2655029-8.6763306-19.2655029-18.9239197
					v-31.8358917H503.7505798z"/>
				<path class="st3" d="M551.9143066,237.4278717h5.260437l28.9665527,42.0834808h0.1366577v-42.0834808h4.7139282v49.7350311
					h-5.260498l-28.9665527-42.0834808h-0.1366577v42.0834808h-4.7138672V237.4278717z"/>
				<path class="st3" d="M601.0344238,237.4278717h17.2160034c15.0297852,0.3415833,22.8179932,8.4030304,22.8179932,24.8675079
					s-7.788208,24.5259094-22.8179932,24.8674927h-17.2160034V237.4278717z M605.7483521,283.1321716h10.1109619
					c14.2783203,0,20.4951782-5.943634,20.4951782-20.836792c0-14.8931732-6.2168579-20.836792-20.4951782-20.836792h-10.1109619
					V283.1321716z"/>
				<path class="st3" d="M663.2715454,237.4278717h5.260437l19.470459,49.7350311h-5.055481l-6.0802612-15.4397278h-22.6130371
					l-6.0119019,15.4397278h-5.055542L663.2715454,237.4278717z M655.7566528,267.6924438h19.5387573l-9.6327515-25.4823608
					L655.7566528,267.6924438z"/>
				<path class="st3" d="M682.468689,237.4278717h39.4191284v4.0307159h-17.3526001v45.7042847h-4.7139282v-45.7042847H682.468689
					V237.4278717L682.468689,237.4278717z"/>
				<path class="st3" d="M726.9432983,237.4278717h4.7139282v49.7350311h-4.7139282V237.4278717z"/>
				<path class="st3" d="M762.8782349,236.4031219c15.576355,0,23.364502,12.2287903,23.364502,25.8922577
					c0,13.6634827-7.788147,25.8922729-23.364502,25.8922729c-15.6447144,0-23.5012207-12.2287903-23.5012207-25.8922729
					C739.3770142,248.6319122,747.1652222,236.4031219,762.8782349,236.4031219z M762.8782349,284.1569214
					c13.1169434,0,18.6506348-10.9990845,18.6506348-21.8615417s-5.6020508-21.8615417-18.6506348-21.8615417
					c-13.1852417,0-18.7189941,10.9990845-18.7189941,21.8615417S749.6929932,284.1569214,762.8782349,284.1569214z"/>
				<path class="st3" d="M793.5527344,237.4278717h5.260437l28.9665527,42.0834808h0.1366577v-42.0834808h4.7139282v49.7350311
					h-5.260498l-28.9665527-42.0834808h-0.1366577v42.0834808h-4.7138672V237.4278717z"/>
			</g>
			<g>
				<path class="st3" d="M415.2796326,128.8716278h27.3952332v66.1311798h39.3507996v22.8179779h-66.8143616v-88.9491577
					H415.2796326z"/>
				<path class="st3" d="M499.993103,128.8716278h27.3952637v88.9491577H499.993103V128.8716278L499.993103,128.8716278z"/>
				<path class="st3" d="M547.8152466,128.8716278h28.0101318L601.7176514,176.4888h0.2732544v-47.6171722h25.892334v88.9491577
					h-26.6437988l-27.258606-48.5736237h-0.2733154v48.5736237h-25.8922729V128.8716278z"/>
				<path class="st3" d="M729.1977539,183.4571838c0,24.7991943-13.048584,36.4814453-40.512146,36.4814453
					c-27.3952637,0-40.6488037-11.6822662-40.6488037-36.4814453v-54.585556h27.3952026v48.4369965
					c0,8.9495697-0.1365967,20.4268799,13.3218994,20.4268799c12.9802856,0,12.9802856-11.4773254,12.9802856-20.4268799
					v-48.4369965h27.3952637v54.585556H729.1977539z"/>
				<path class="st3" d="M772.7842407,170.4768829l-29.3081665-41.6052551h32.1774292l13.4585571,24.1843414l13.1852417-24.1843414
					h30.4011841l-28.4882812,41.8785248l31.7675781,47.0706329h-32.9972534l-15.1665039-26.5071259l-15.7129517,26.5071259
					h-31.4259644L772.7842407,170.4768829z"/>
			</g>
			<g>
				<polygon class="st4" points="197.620575,242.4150391 197.620575,152.9876404 152.8043976,152.9876404 152.8043976,287.1628723 
					287.0479736,287.1628723 287.0479736,242.4150391 				"/>
				<polygon class="st3" points="376.4070435,63.4919319 152.8043976,63.4919319 152.8043976,130.5795593 197.5522614,130.5795593 
					197.5522614,108.4447403 331.7275085,108.4447403 331.7275085,242.4150391 309.3877258,242.4150391 309.3877258,287.1628723 
					376.4070435,287.1628723 				"/>
			</g>
		</g>
		<g>
			<g>
				<g>
					<path class="st3" d="M151.659317,522.9647827h-47.6113281L93.2765045,552.234314H77.588028l43.9433594-113.6425476h13.1904297
						L177.963028,552.234314h-15.6884766L151.659317,522.9647827z M108.8087311,510.0868835h38.2451172l-18.7314453-51.7480469
						h-0.46875L108.8087311,510.0868835z"/>
					<path class="st3" d="M256.7149658,523.6171265c0-5.171875-1.9511566-9.5039062-5.8544769-12.9960632
						c-3.9023438-3.4921875-10.8232422-6.4277344-20.7617188-8.8076172
						c-12.0195312-2.8691406-21.3994141-7.09375-28.1367188-12.6748047
						c-6.7392578-5.5810547-10.1083984-12.5966797-10.1083984-21.0478516c0-8.8662109,3.6298828-16.2724609,10.8886719-22.21875
						s16.6640625-8.9199219,28.2158203-8.9199219c12.4355469,0,22.3349609,3.4091797,29.6982269,10.2246094
						c7.3623047,6.8173828,10.9140625,14.7265625,10.6542969,23.7275391l-0.15625,0.46875h-14.6738281
						c0-6.6601562-2.1992035-12.0458984-6.5956879-16.15625c-4.3974609-4.1103516-10.7060547-6.1660156-18.9267578-6.1660156
						c-7.6494141,0-13.5166016,1.7304688-17.6005859,5.1904297c-4.0859375,3.4609375-6.1279297,7.9746094-6.1279297,13.5410156
						c0,4.9443359,2.2119141,9.0673828,6.6347656,12.3720703c4.421875,3.3046875,11.6025391,6.2050781,21.5419922,8.7021484
						c11.9677734,2.9658203,21.0742035,7.3369141,27.3183441,13.1123047
						c6.2441406,5.7763672,9.3662109,12.9316101,9.3662109,21.4648132c0,9.1582031-3.7460938,16.5214844-11.2392578,22.0878906
						c-7.4931488,5.5693359-17.2763519,8.3515625-29.347641,8.3515625c-11.3447266,0-21.3740234-3.0830078-30.0888672-9.2490234
						c-8.7158203-6.1660156-12.9443359-14.4003906-12.6835938-24.703125l0.15625-0.4677734h14.6738281
						c0,7.2851562,2.6796875,12.8271484,8.0390625,16.625c5.359375,3.7988281,11.9931641,5.6972656,19.9033203,5.6972656
						c7.7529297,0,13.8935547-1.6289062,18.4199219-4.8876953
						C254.4513092,533.6288452,256.7149658,529.2050171,256.7149658,523.6171265z"/>
					<path class="st3" d="M358.6719971,523.6171265c0-5.171875-1.9511719-9.5039062-5.8544922-12.9960632
						c-3.9023438-3.4921875-10.8232422-6.4277344-20.7617188-8.8076172
						c-12.0195312-2.8691406-21.3994141-7.09375-28.1367188-12.6748047
						c-6.7392578-5.5810547-10.1083984-12.5966797-10.1083984-21.0478516c0-8.8662109,3.6298828-16.2724609,10.8886719-22.21875
						s16.6640625-8.9199219,28.2158203-8.9199219c12.4355469,0,22.3349609,3.4091797,29.6982422,10.2246094
						c7.3623047,6.8173828,10.9140625,14.7265625,10.6542969,23.7275391l-0.15625,0.46875h-14.6738281
						c0-6.6601562-2.1992188-12.0458984-6.5957031-16.15625c-4.3974609-4.1103516-10.7060547-6.1660156-18.9267578-6.1660156
						c-7.6494141,0-13.5166016,1.7304688-17.6005859,5.1904297c-4.0859375,3.4609375-6.1279297,7.9746094-6.1279297,13.5410156
						c0,4.9443359,2.2119141,9.0673828,6.6347656,12.3720703c4.421875,3.3046875,11.6025391,6.2050781,21.5419922,8.7021484
						c11.9677734,2.9658203,21.0742188,7.3369141,27.3183594,13.1123047
						c6.2441406,5.7763672,9.3662109,12.9316101,9.3662109,21.4648132c0,9.1582031-3.7460938,16.5214844-11.2392578,22.0878906
						c-7.4931641,5.5693359-17.2763672,8.3515625-29.3476562,8.3515625c-11.3447266,0-21.3740234-3.0830078-30.0888672-9.2490234
						c-8.7158203-6.1660156-12.9443359-14.4003906-12.6835938-24.703125l0.15625-0.4677734h14.6738281
						c0,7.2851562,2.6796875,12.8271484,8.0390625,16.625c5.359375,3.7988281,11.9931641,5.6972656,19.9033203,5.6972656
						c7.7529297,0,13.8935547-1.6289062,18.4199219-4.8876953
						C356.4083252,533.6288452,358.6719971,529.2050171,358.6719971,523.6171265z"/>
					<path class="st3" d="M483.6925049,505.5595398c0,13.8935242-4.3056641,25.4189148-12.9169922,34.5771179
						c-8.6123047,9.1582031-19.7861328,13.7363281-33.5234375,13.7363281c-13.2685547,0-24.0527344-4.578125-32.3525391-13.7363281
						s-12.4492188-20.6835938-12.4492188-34.5771179V485.344696c0-13.8408203,4.1494141-25.3671875,12.4492188-34.5771484
						s19.0839844-13.8154297,32.3525391-13.8154297c13.7373047,0,24.9111328,4.5927734,33.5234375,13.7763672
						c8.6113281,9.1845703,12.9169922,20.7226562,12.9169922,34.6162109V505.5595398z M468.3165283,485.188446
						c0-10.4072266-2.8095703-18.9404297-8.4296875-25.6015625c-5.6191406-6.6591797-13.1650391-9.9902344-22.6347656-9.9902344
						c-8.9501953,0-16.0917969,3.3310547-21.4248047,9.9902344c-5.3339844,6.6611328-8,15.1943359-8,25.6015625v20.3710938
						c0,10.5116882,2.6660156,19.0966492,8,25.7568054c5.3330078,6.6611328,12.4746094,9.9912109,21.4248047,9.9912109
						c9.5224609,0,17.0800781-3.3173828,22.6738281-9.9521484c5.59375-6.6337891,8.390625-15.2324219,8.390625-25.7958679
						V485.188446z"/>
					<path class="st3" d="M588.1700439,515.7841187l0.15625,0.46875
						c0.2070312,10.6669922-3.5390625,19.6044922-11.2392578,26.8105469
						c-7.7021484,7.2070312-17.8740234,10.8095703-30.5185547,10.8095703c-12.8525391,0-23.3251953-4.5517578-31.4160156-13.6582031
						c-8.0917969-9.1054688-12.1367188-20.6572266-12.1367188-34.6552429V485.344696
						c0-13.9970703,4.0449219-25.5625,12.1367188-34.6943359c8.0908203-9.1318359,18.5634766-13.6982422,31.4160156-13.6982422
						c12.8515625,0,23.0761719,3.421875,30.6748047,10.2636719c7.5957031,6.8427734,11.2900391,15.9101562,11.0830078,27.2011719
						l-0.15625,0.46875h-14.7519531c0-7.9619141-2.3417969-14.2568359-7.0244141-18.8886719
						c-4.6835938-4.6308594-11.2919922-6.9462891-19.8251953-6.9462891c-8.5859375,0-15.4287109,3.4570312-20.5273438,10.3720703
						c-5.1005859,6.9150391-7.6494141,15.4931641-7.6494141,25.734375v20.3544922
						c0,10.3466492,2.5488281,18.976532,7.6494141,25.891571c5.0986328,6.9150391,11.9414062,10.3720703,20.5273438,10.3720703
						c8.5332031,0,15.1416016-2.3027344,19.8251953-6.9072266c4.6826172-4.6054688,7.0244141-10.9667969,7.0244141-19.0839844
						H588.1700439z"/>
					<path class="st3" d="M625.3858643,552.234314h-15.4541016V438.5917664h15.4541016V552.234314z"/>
					<path class="st3" d="M718.0987549,522.9647827h-47.6113281l-10.7714844,29.2695312h-15.6884766l43.9433594-113.6425476
						h13.1904297l43.2412109,113.6425476h-15.6884766L718.0987549,522.9647827z M675.2481689,510.0868835h38.2451172
						l-18.7314453-51.7480469h-0.46875L675.2481689,510.0868835z"/>
					<path class="st3" d="M825.8135986,450.6894226h-36.5283203V552.234314h-15.3759766V450.6894226h-36.4501953v-12.0976562
						h88.3544922V450.6894226z"/>
					<path class="st3" d="M912.0313721,499.5497742h-52.0595703v40.5868835h60.0214844v12.0976562h-75.3984375V438.5917664
						h74.5400391v12.0976562h-59.1630859v36.7617188h52.0595703V499.5497742z"/>
				</g>
				<g>
					<g>
						<path class="st3" d="M316.7442627,599.3612671l21.6298828,55.1464844h0.2792969l21.6298828-55.1464844h11.7470703v67.8720703
							h-9.1835938v-26.8505859l0.9326172-27.5957031l-0.2333984-0.046875l-22.0019531,54.4931641h-6.1074219l-21.9091797-54.3535156
							l-0.2324219,0.046875l0.8857422,27.4560547v26.8505859h-9.1835938v-67.8720703H316.7442627z"/>
						<path class="st3" d="M429.1329346,635.7684937h-31.0917969v24.2392578h35.8466797v7.2255859h-45.0302734v-67.8720703
							h44.5175781v7.2255859h-35.3339844v21.9560547h31.0917969V635.7684937z"/>
						<path class="st3" d="M456.4034424,599.3612671l21.6298828,55.1464844h0.2792969l21.6298828-55.1464844h11.7470703v67.8720703
							h-9.1835938v-26.8505859l0.9326172-27.5957031l-0.2333984-0.046875l-22.0019531,54.4931641h-6.1074219l-21.9091797-54.3535156
							l-0.2324219,0.046875l0.8857422,27.4560547v26.8505859h-9.1835938v-67.8720703H456.4034424z"/>
						<path class="st3" d="M528.5167236,667.2333374v-67.8720703h22.1425781c7.0849609,0,12.6328125,1.53125,16.6416016,4.5917969
							c4.0087891,3.0615234,6.0126953,7.6533203,6.0126953,13.7753906c0,3.0146484-0.9628906,5.7099609-2.8896484,8.0869141
							c-1.9277344,2.3779297-4.4599609,4.1416016-7.5986328,5.2910156c4.1025391,0.8701172,7.3261719,2.875,9.6728516,6.0136719
							c2.3457031,3.1386719,3.5195312,6.7900391,3.5195312,10.9541016c0,6.2158203-2.0126953,10.9628906-6.0371094,14.2412109
							c-4.0244141,3.2792969-9.4853516,4.9179688-16.3847656,4.9179688H528.5167236z M537.7003174,628.2167358h14.8701172
							c3.4179688,0,6.1992188-0.9394531,8.34375-2.8203125c2.1445312-1.8798828,3.2167969-4.4990234,3.2167969-7.8544922
							c0-3.6669922-1.1582031-6.4101562-3.4726562-8.2275391c-2.3154297-1.8183594-5.6484375-2.7275391-9.9990234-2.7275391
							h-12.9589844V628.2167358z M537.7003174,635.4413452v24.5664062h15.8955078
							c4.1640625,0,7.4121094-1.0292969,9.7421875-3.0878906c2.3310547-2.0585938,3.4960938-4.9765625,3.4960938-8.7539062
							c0-3.9619141-0.9716797-7.0732422-2.9130859-9.3339844c-1.9423828-2.2597656-4.9335938-3.390625-8.9736328-3.390625
							H537.7003174z"/>
						<path class="st3" d="M629.8116455,635.7684937h-31.0917969v24.2392578h35.8466797v7.2255859h-45.0302734v-67.8720703
							h44.5175781v7.2255859h-35.3339844v21.9560547h31.0917969V635.7684937z"/>
						<path class="st3" d="M654.5186768,637.8192749v29.4140625h-9.1835938v-67.8251953h24.5664062
							c7.4267578,0,13.0986328,1.6474609,17.0146484,4.9414062c3.9150391,3.2939453,5.8730469,8.0800781,5.8730469,14.3574219
							c0,3.4804688-0.9091797,6.5107422-2.7265625,9.0898438c-1.8183594,2.5800781-4.4677734,4.6308594-7.9482422,6.1533203
							c3.7294922,1.2119141,6.4101562,3.1777344,8.0410156,5.8964844c1.6318359,2.7197266,2.4472656,6.0839844,2.4472656,10.0927734
							v6.3857422c0,2.1142578,0.2333984,4.0087891,0.6992188,5.6875c0.4667969,1.6777344,1.2744141,3.0458984,2.4238281,4.1015625
							v1.1191406h-9.4619141c-1.2128906-1.0556641-1.9892578-2.6103516-2.3310547-4.6611328
							c-0.3427734-2.0517578-0.5126953-4.1640625-0.5126953-6.3398438v-6.2001953
							c0-3.6660156-1.0722656-6.6191406-3.2167969-8.8564453s-5.0195312-3.3564453-8.6240234-3.3564453H654.5186768z
							 M654.5186768,630.593689h14.4501953c5.1894531,0,8.9267578-0.984375,11.2109375-2.9541016
							s3.4267578-4.9707031,3.4267578-9.0029297c0-3.8144531-1.1113281-6.7685547-3.3330078-8.8623047
							c-2.2226562-2.09375-5.6796875-3.140625-10.3720703-3.140625h-15.3828125V630.593689z"/>
					</g>
				</g>
			</g>
		</g>
	</g>
</g>
</svg>
