<?xml version="1.0" encoding="utf-8"?>
<!-- Generator: Adobe Illustrator 26.1.0, SVG Export Plug-In . SVG Version: 6.00 Build 0)  -->
<svg version="1.1" id="Layer_1" xmlns="http://www.w3.org/2000/svg" xmlns:xlink="http://www.w3.org/1999/xlink" x="0px" y="0px"
	 viewBox="0 0 1000 950" style="enable-background:new 0 0 1000 950;" xml:space="preserve">
<style type="text/css">
	.st0{fill:#B7E1E2;}
	.st1{fill:#859D9E;}
	.st2{opacity:0.15;}
	.st3{fill:#FFFFFF;}
	.st4{opacity:0.8;fill:#FFFFFF;}
	.st5{fill:#F2AE03;}
	.st6{opacity:0.1;}
	.st7{fill:#009ADE;}
	.st8{fill:#7F7B79;}
</style>
<g>
	<path class="st0" d="M338.0650024,937.0431519c-0.0463562,0.0039673-0.0927124,0.0076294-0.1393127,0.0098877
		C337.9723511,937.0510864,338.0184326,937.046814,338.0650024,937.0431519z"/>
	<path class="st0" d="M339.8171997,936.5410156c0.0497437-0.0256348,0.102478-0.0431519,0.1514282-0.071106
		c0.0065002-0.0036621,0.0112305-0.0093384,0.0177307-0.0132446
		C339.9316711,936.4879761,339.8731689,936.5119629,339.8171997,936.5410156z"/>
	<path class="st0" d="M339.4065247,936.7341309c-0.0793152,0.0318604-0.161377,0.0567017-0.2425232,0.0838013
		C339.2453003,936.7908325,339.3265076,936.7659912,339.4065247,936.7341309z"/>
	<path class="st0" d="M340.8665466,935.7973022c-0.0194702,0.0186157-0.0405579,0.0350342-0.0603333,0.0531006
		C340.8259888,935.8323364,340.8470764,935.815918,340.8665466,935.7973022z"/>
	<path class="st0" d="M338.7640686,936.9347534c-0.0699463,0.0166626-0.1407776,0.0302124-0.2117615,0.0435181
		C338.6233521,936.965271,338.693634,936.9511719,338.7640686,936.9347534z"/>
	<path class="st0" d="M341.5656128,934.9494019c-0.0198364,0.0307617-0.0402832,0.0609741-0.0607605,0.0911865
		C341.5255432,935.0101318,341.5457153,934.9804688,341.5656128,934.9494019z"/>
	<g>
		<polygon class="st5" points="1.0271466,373.8416443 1.0271466,825.9440918 499.9997864,719.1257935 998.9728394,825.9440918 
			998.9728394,373.8416443 		"/>
		<rect x="1.0271466" class="st5" width="997.9456787" height="351.7333069"/>
		<polygon class="st5" points="988.2706909,864.2282715 998.9728394,866.4941406 998.9728394,847.2442017 988.2706909,844.9783325 
			501.9511414,742.0061646 500.0021057,741.59552 15.1595278,844.3590088 1.0271635,847.3543091 1.0271635,866.6054077 
			15.1595278,863.6098022 500.0021057,760.8414917 		"/>
		<polygon class="st5" points="988.2706909,902.6062622 998.9728394,904.8721313 998.9728394,885.6221924 988.2706909,883.3563232 
			501.9511414,780.3841553 500.0021057,779.9735107 15.1595278,882.7369995 1.0271635,885.7322998 1.0271635,904.9833984 
			15.1595278,901.987793 500.0021057,799.2195435 		"/>
		<g class="st6">
			<polygon points="998.9728394,825.9440918 998.9728394,373.8416748 499.9999695,373.8416748 499.9999695,719.1258545 			"/>
			<rect x="499.9999695" y="0.0000851" width="498.9728699" height="351.7332458"/>
			<polygon points="500.0021057,760.8414917 988.270752,864.2282715 998.9728394,866.4941406 998.9728394,847.2442017 
				988.270752,844.9783325 501.9511108,742.0061646 500.0021057,741.59552 499.9999695,741.5959473 499.9999695,760.8419189 			"/>
			<polygon points="500.0021057,799.2195435 988.270752,902.6062622 998.9728394,904.8721924 998.9728394,885.6221924 
				988.270752,883.3563232 501.9511108,780.3841553 500.0021057,779.9735107 499.9999695,779.973938 499.9999695,799.2199707 			"/>
		</g>
		<g>
			<g>
				<path class="st3" d="M415.2796326,64.3117371h39.4190979v4.0307236h-17.3526001v45.7042999h-4.7138977V68.4107819h-17.3526001
					V64.3117371L415.2796326,64.3117371z"/>
				<path class="st3" d="M459.3442993,64.3117371h4.7138977v21.5882797h29.513092V64.3117371h4.7138977v49.7350235h-4.7138977
					v-24.047699h-29.513092v24.047699h-4.7138977V64.3117371z"/>
				<path class="st3" d="M508.3961487,64.3117371h34.3636169v4.0307236h-29.5814209v17.9674606h27.6685181v4.0307236h-27.7368164
					v19.6070786H543.03302v4.0990372h-34.7051697V64.3117371H508.3961487z"/>
			</g>
			<g>
				<path class="st3" d="M415.2796326,237.4278717h31.5625916v4.0307159h-26.7803955v17.9674683h23.7744141v4.0307007h-23.8427429
					v23.7061157h-4.7138672V237.4278717z"/>
				<path class="st3" d="M473.4859619,236.4031219c15.576355,0,23.364563,12.2287903,23.364563,25.8922577
					c0,13.6634827-7.7881775,25.8922729-23.364563,25.8922729c-15.6446533,0-23.5011597-12.2287903-23.5011597-25.8922729
					C449.9848022,248.6319122,457.7729797,236.4031219,473.4859619,236.4031219z M473.4859619,284.1569214
					c13.1169434,0,18.6506348-10.9990845,18.6506348-21.8615417s-5.6020203-21.8615417-18.6506348-21.8615417
					c-13.1852112,0-18.7189331,10.9990845-18.7189331,21.8615417S460.3007507,284.1569214,473.4859619,284.1569214z"/>
				<path class="st3" d="M503.7505798,237.4278717h4.7138977v30.8111115c0,11.4773254,5.3287354,15.9179382,14.5515747,15.9179382
					c9.2911377,0,14.6199341-4.4406128,14.6199341-15.9179382v-30.8111115h4.7139282v31.8358917
					c0,10.2475891-5.5336914,18.9239197-19.3338013,18.9239197c-13.731781,0-19.2655029-8.6763306-19.2655029-18.9239197
					v-31.8358917H503.7505798z"/>
				<path class="st3" d="M551.9143066,237.4278717h5.260437l28.9665527,42.0834808h0.1366577v-42.0834808h4.7139282v49.7350311
					h-5.260498l-28.9665527-42.0834808h-0.1366577v42.0834808h-4.7138672V237.4278717z"/>
				<path class="st3" d="M601.0344238,237.4278717h17.2160034c15.0297852,0.3415833,22.8179932,8.4030304,22.8179932,24.8675079
					s-7.788208,24.5259094-22.8179932,24.8674927h-17.2160034V237.4278717z M605.7483521,283.1321716h10.1109619
					c14.2783203,0,20.4951782-5.943634,20.4951782-20.836792c0-14.8931732-6.2168579-20.836792-20.4951782-20.836792h-10.1109619
					V283.1321716z"/>
				<path class="st3" d="M663.2715454,237.4278717h5.260437l19.470459,49.7350311h-5.055481l-6.0802612-15.4397278h-22.6130371
					l-6.0119019,15.4397278h-5.055542L663.2715454,237.4278717z M655.7566528,267.6924438h19.5387573l-9.6327515-25.4823608
					L655.7566528,267.6924438z"/>
				<path class="st3" d="M682.468689,237.4278717h39.4191284v4.0307159h-17.3526001v45.7042847h-4.7139282v-45.7042847H682.468689
					V237.4278717L682.468689,237.4278717z"/>
				<path class="st3" d="M726.9432983,237.4278717h4.7139282v49.7350311h-4.7139282V237.4278717z"/>
				<path class="st3" d="M762.8782349,236.4031219c15.576355,0,23.364502,12.2287903,23.364502,25.8922577
					c0,13.6634827-7.788147,25.8922729-23.364502,25.8922729c-15.6447144,0-23.5012207-12.2287903-23.5012207-25.8922729
					C739.3770142,248.6319122,747.1652222,236.4031219,762.8782349,236.4031219z M762.8782349,284.1569214
					c13.1169434,0,18.6506348-10.9990845,18.6506348-21.8615417s-5.6020508-21.8615417-18.6506348-21.8615417
					c-13.1852417,0-18.7189941,10.9990845-18.7189941,21.8615417S749.6929932,284.1569214,762.8782349,284.1569214z"/>
				<path class="st3" d="M793.5527344,237.4278717h5.260437l28.9665527,42.0834808h0.1366577v-42.0834808h4.7139282v49.7350311
					h-5.260498l-28.9665527-42.0834808h-0.1366577v42.0834808h-4.7138672V237.4278717z"/>
			</g>
			<g>
				<path class="st3" d="M415.2796326,128.8716278h27.3952332v66.1311798h39.3507996v22.8179779h-66.8143616v-88.9491577
					H415.2796326z"/>
				<path class="st3" d="M499.993103,128.8716278h27.3952637v88.9491577H499.993103V128.8716278L499.993103,128.8716278z"/>
				<path class="st3" d="M547.8152466,128.8716278h28.0101318L601.7176514,176.4888h0.2732544v-47.6171722h25.892334v88.9491577
					h-26.6437988l-27.258606-48.5736237h-0.2733154v48.5736237h-25.8922729V128.8716278z"/>
				<path class="st3" d="M729.1977539,183.4571838c0,24.7991943-13.048584,36.4814453-40.512146,36.4814453
					c-27.3952637,0-40.6488037-11.6822662-40.6488037-36.4814453v-54.585556h27.3952026v48.4369965
					c0,8.9495697-0.1365967,20.4268799,13.3218994,20.4268799c12.9802856,0,12.9802856-11.4773254,12.9802856-20.4268799
					v-48.4369965h27.3952637v54.585556H729.1977539z"/>
				<path class="st3" d="M772.7842407,170.4768829l-29.3081665-41.6052551h32.1774292l13.4585571,24.1843414l13.1852417-24.1843414
					h30.4011841l-28.4882812,41.8785248l31.7675781,47.0706329h-32.9972534l-15.1665039-26.5071259l-15.7129517,26.5071259
					h-31.4259644L772.7842407,170.4768829z"/>
			</g>
			<g>
				<polygon class="st4" points="197.620575,242.4150391 197.620575,152.9876404 152.8043976,152.9876404 152.8043976,287.1628723 
					287.0479736,287.1628723 287.0479736,242.4150391 				"/>
				<polygon class="st3" points="376.4070435,63.4919319 152.8043976,63.4919319 152.8043976,130.5795593 197.5522614,130.5795593 
					197.5522614,108.4447403 331.7275085,108.4447403 331.7275085,242.4150391 309.3877258,242.4150391 309.3877258,287.1628723 
					376.4070435,287.1628723 				"/>
			</g>
		</g>
		<g>
			<g>
				<g>
					<path class="st3" d="M390.8116455,537.1710815c-2.7060547,4.1635742-7.4023438,7.9882812-14.0878906,11.4736328
						c-6.6875,3.4868164-15.3378906,5.2294922-25.9521484,5.2294922c-13.5810547,0-24.8085938-4.3442383-33.6796875-13.034668
						c-8.8720703-8.6894531-13.3076172-19.9287109-13.3076172-33.7182617v-23.4155273
						c0-13.7880859,4.1367188-25.0273438,12.4101562-33.7182617c8.2734375-8.6889648,18.9394531-13.034668,32.0009766-13.034668
						c13.0078125,0,23.2324219,3.2001953,30.6748047,9.6005859c7.4404297,6.4003906,11.2392578,14.6479492,11.3955078,24.7421875
						l-0.15625,0.4682617h-14.6738281c-0.46875-6.6074219-2.9794922-12.0454102-7.5322266-16.3125
						c-4.5537109-4.2661133-11.1220703-6.4003906-19.7080078-6.4003906c-8.6904297,0-15.6884766,3.25-20.9960938,9.7490234
						s-7.9609375,14.7397461-7.9609375,24.7207031v23.5517578c0,10.0869141,2.9658203,18.3920898,8.8974609,24.9169922
						c5.9326172,6.5244141,13.4765625,9.7866211,22.6357422,9.7866211c6.4511719,0,11.7333984-0.855957,15.84375-2.5693359
						c4.1103516-1.7124023,7.0507812-3.6601562,8.8203125-5.8408203v-25.7763672h-24.8984375V495.491394h40.2744141V537.1710815z"/>
					<path class="st3" d="M502.8956299,505.5602417c0,13.8930664-4.3056641,25.4194336-12.9169922,34.5766602
						c-8.6123047,9.1591797-19.7861328,13.7373047-33.5234375,13.7373047c-13.2685547,0-24.0527344-4.578125-32.3525391-13.7373047
						c-8.2998047-9.1572266-12.4492188-20.6835938-12.4492188-34.5766602v-20.215332
						c0-13.8408203,4.1494141-25.3666992,12.4492188-34.5766602s19.0839844-13.8154297,32.3525391-13.8154297
						c13.7373047,0,24.9111328,4.5932617,33.5234375,13.7763672c8.6113281,9.1845703,12.9169922,20.7226562,12.9169922,34.6157227
						V505.5602417z M487.5196533,485.1886597c0-10.40625-2.8095703-18.9394531-8.4296875-25.6005859
						c-5.6191406-6.6601562-13.1650391-9.9907227-22.6347656-9.9907227c-8.9501953,0-16.0917969,3.3305664-21.4248047,9.9907227
						c-5.3339844,6.6611328-8,15.1943359-8,25.6005859v20.371582c0,10.5112305,2.6660156,19.097168,8,25.7568359
						c5.3330078,6.6616211,12.4746094,9.9907227,21.4248047,9.9907227c9.5224609,0,17.0800781-3.3173828,22.6738281-9.9516602
						s8.390625-15.2319336,8.390625-25.7958984V485.1886597z"/>
					<path class="st3" d="M541.5880127,540.1369019h53.7773438v12.0981445h-69.1542969V438.59198h15.3769531V540.1369019z"/>
					<path class="st3" d="M614.3428955,552.2350464V438.59198h34.8896484c14.8808594,0,26.8222656,4.565918,35.8251953,13.6982422
						c9.0019531,9.1318359,13.5029297,20.9311523,13.5029297,35.3964844v15.5322266
						c0,14.5175781-4.5009766,26.3164062-13.5029297,35.3959961c-9.0029297,9.0810547-20.9443359,13.6201172-35.8251953,13.6201172
						H614.3428955z M629.7198486,450.6901245v89.4467773h19.5126953c10.5097656,0,18.796875-3.4560547,24.859375-10.3710938
						c6.0605469-6.9145508,9.0927734-15.7783203,9.0927734-26.5932617v-15.6738281
						c0-10.7099609-3.0322266-19.5214844-9.0927734-26.4365234c-6.0625-6.9145508-14.3496094-10.3720703-24.859375-10.3720703
						H629.7198486z"/>
				</g>
				<g>
					<g>
						<path class="st3" d="M316.7442627,599.3615112l21.6298828,55.1455078h0.2792969l21.6298828-55.1455078h11.7470703v67.871582
							h-9.1835938v-26.8500977l0.9326172-27.5961914l-0.2333984-0.046875l-22.0019531,54.4931641h-6.1074219l-21.9091797-54.3535156
							l-0.2324219,0.046875l0.8857422,27.456543v26.8500977h-9.1835938v-67.871582H316.7442627z"/>
						<path class="st3" d="M429.1329346,635.7677612h-31.0917969v24.2397461h35.8466797v7.2255859h-45.0302734v-67.871582
							h44.5175781v7.2250977h-35.3339844v21.9560547h31.0917969V635.7677612z"/>
						<path class="st3" d="M456.4034424,599.3615112l21.6298828,55.1455078h0.2792969l21.6298828-55.1455078h11.7470703v67.871582
							h-9.1835938v-26.8500977l0.9326172-27.5961914l-0.2333984-0.046875l-22.0019531,54.4931641h-6.1074219l-21.9091797-54.3535156
							l-0.2324219,0.046875l0.8857422,27.456543v26.8500977h-9.1835938v-67.871582H456.4034424z"/>
						<path class="st3" d="M528.5167236,667.2330933v-67.871582h22.1425781c7.0849609,0,12.6328125,1.5307617,16.6416016,4.5913086
							c4.0087891,3.0615234,6.0126953,7.6533203,6.0126953,13.7749023c0,3.0146484-0.9628906,5.7104492-2.8896484,8.0878906
							c-1.9277344,2.3774414-4.4599609,4.1416016-7.5986328,5.2905273c4.1025391,0.8706055,7.3261719,2.875,9.6728516,6.0136719
							c2.3457031,3.1391602,3.5195312,6.7905273,3.5195312,10.9545898c0,6.2158203-2.0126953,10.9624023-6.0371094,14.2407227
							c-4.0244141,3.2792969-9.4853516,4.9179688-16.3847656,4.9179688H528.5167236z M537.7003174,628.2160034h14.8701172
							c3.4179688,0,6.1992188-0.9394531,8.34375-2.8198242c2.1445312-1.8798828,3.2167969-4.4985352,3.2167969-7.8549805
							c0-3.6665039-1.1582031-6.409668-3.4726562-8.2275391c-2.3154297-1.8178711-5.6484375-2.7270508-9.9990234-2.7270508
							h-12.9589844V628.2160034z M537.7003174,635.4415894v24.565918h15.8955078
							c4.1640625,0,7.4121094-1.0288086,9.7421875-3.0878906c2.3310547-2.0585938,3.4960938-4.9760742,3.4960938-8.753418
							c0-3.9624023-0.9716797-7.0742188-2.9130859-9.3339844c-1.9423828-2.2602539-4.9335938-3.390625-8.9736328-3.390625
							H537.7003174z"/>
						<path class="st3" d="M629.8116455,635.7677612h-31.0917969v24.2397461h35.8466797v7.2255859h-45.0302734v-67.871582
							h44.5175781v7.2250977h-35.3339844v21.9560547h31.0917969V635.7677612z"/>
						<path class="st3" d="M654.5186768,637.8190308v29.4140625h-9.1835938v-67.8251953h24.5664062
							c7.4267578,0,13.0986328,1.6474609,17.0146484,4.9414062c3.9150391,3.2944336,5.8730469,8.0805664,5.8730469,14.3574219
							c0,3.480957-0.9091797,6.5107422-2.7265625,9.0898438c-1.8183594,2.5800781-4.4677734,4.6308594-7.9482422,6.1533203
							c3.7294922,1.2119141,6.4101562,3.1777344,8.0410156,5.8969727c1.6318359,2.7197266,2.4472656,6.0830078,2.4472656,10.0917969
							v6.3867188c0,2.1132812,0.2333984,4.0087891,0.6992188,5.6870117
							c0.4667969,1.6777344,1.2744141,3.0458984,2.4238281,4.1020508v1.1186523h-9.4619141
							c-1.2128906-1.0561523-1.9892578-2.6103516-2.3310547-4.6616211
							c-0.3427734-2.0507812-0.5126953-4.1640625-0.5126953-6.3393555v-6.2001953
							c0-3.6665039-1.0722656-6.6191406-3.2167969-8.8569336c-2.1445312-2.2373047-5.0195312-3.355957-8.6240234-3.355957
							H654.5186768z M654.5186768,630.5934448h14.4501953c5.1894531,0,8.9267578-0.9848633,11.2109375-2.9541016
							c2.2841797-1.9697266,3.4267578-4.9702148,3.4267578-9.0024414c0-3.8154297-1.1113281-6.7695312-3.3330078-8.862793
							c-2.2226562-2.0932617-5.6796875-3.140625-10.3720703-3.140625h-15.3828125V630.5934448z"/>
					</g>
				</g>
			</g>
		</g>
	</g>
</g>
</svg>
